<svg xmlns="http://www.w3.org/2000/svg" viewBox="0 0 1751.9 909.09"><defs><style>.cls-1{fill:#555;}</style></defs><g id="Layer_2" data-name="Layer 2"><g id="Layer_1-2" data-name="Layer 1"><path class="cls-1" d="M152.18,214.92h5.34c3.56.45,5.34,2.24,5.34,5.34q-18.69,202.92-24,288.35,54.07-13.35,72.09-13.35l2.67,5.34v2.67q0,9.36-77.43,21.36L106.79,903.75l-8,5.34c-4.45-3.57-7.12-5.34-8-5.34L120.14,527.3q-56.73,13.35-74.75,13.35H40.05q-24,0-24-21.36v-8L58.74,401.81q5.32-12,5.34-34.7-2.69-19.35-2.67-21.36H56.07q-30,0-42.72,56.06h-8C1.77,401.81,0,400,0,396.48v-2.67q13.35-64.08,56.07-64.08h8q13.33,0,16,40,0,38.72-48.06,141.5v8q.66,5.34,5.34,5.34H48.06q74.75-10,74.75-18.69Q142.16,214.94,152.18,214.92Z"/><path class="cls-1" d="M411.82,546a165.32,165.32,0,0,0,3.34-18l2-13.34q-4-73.42-84.1-100.12a142.83,142.83,0,0,0-26.7-2.67q-8.67,0-34.7,8v2.67q44.7,26,88.1,64.07v2.67q0,4-8,8H341.07q-32-10.67-34.71-10.68h-16Q234.93,532,223.6,532l-10.68,2.67q-15.36,0-21.36-24,0-42.71,50.73-93.44-8,0-13.35-10.68v-5.34q.66-5.34,5.34-5.34H237l21.36,13.35q27.36-13.35,50.72-13.35,89.45,0,120.15,93.44l2.67,24q0,44.73-13.35,56.07l-4,.67ZM210.25,510.61V516h8q12,0,64.08-42.72,8.66-5.33,26.69-5.34v-2.67q-50.73-34.7-53.39-34.7Q210.24,461.23,210.25,510.61Z"/><path class="cls-1" d="M417.82,483.25q16,0,16,194.9,26.7,160.19,157.52,160.19,98.77,0,272.33-122.82,65.4-58.74,77.43-58.73h2.67q16,0,16,58.73v5.34c0,3.56-1.79,5.34-5.34,5.34H951.8q-10.69,0-10.68-50.72h-5.34Q727.52,854.34,591.36,854.36h-2.67q-148.85,0-170.87-186.89-2.65-96.79-8-178.89Z"/><path class="cls-1" d="M447.56,0h5.34q42.71,50.05,42.72,138.83l-21.36,275h2.67q29.35-10.66,48.06-10.68h18.69q77.42,8.69,77.42,58.74v2.67q0,56.06-101.45,82.76h-8q-52.74,0-58.74-66.74l24-333.74v-24q0-58.07-34.71-117.47V2.67Zm21.36,485.92q6,45.39,42.72,45.38,93.43-22.68,93.44-66.74-5.34-45.39-61.4-45.39H530.33q-61.43,0-61.41,34.71Z"/><path class="cls-1" d="M686.51,380.46h5.34c3.56.44,5.34,2.23,5.34,5.34v82.76q0,140.18,61.41,165.53h18.68q32.7,0,82.77-61.4h5.34c3.56.43,5.34,2.22,5.34,5.34v2.67Q820,652.78,771.94,652.78q-77.43,0-88.1-152.18-2.67-10-2.67-50.73V404.48H678.5q-31.38,20.7-48.06,34.71H625.1c-3.55,0-5.34-1.77-5.34-5.34v-2.67Q638.47,408.5,686.51,380.46Z"/><path class="cls-1" d="M1163.85,546a167.76,167.76,0,0,0,3.34-18l2-13.34q-4-73.42-84.1-100.12a142.91,142.91,0,0,0-26.7-2.67q-8.69,0-34.71,8v2.67q44.72,26,88.1,64.07v2.67q0,4-8,8H1093.1q-32-10.67-34.71-10.68h-16Q987,532,975.62,532l-10.68,2.67q-15.36,0-21.36-24,0-42.71,50.73-93.44-8,0-13.35-10.68v-5.34q.66-5.34,5.34-5.34H989l21.36,13.35q27.36-13.35,50.73-13.35,89.43,0,120.14,93.44l2.67,24q0,44.73-13.35,56.07l-4,.67ZM962.27,510.61V516h8q12,0,64.08-42.72,8.67-5.33,26.7-5.34v-2.67q-50.73-34.7-53.4-34.7Q962.27,461.23,962.27,510.61Z"/><path class="cls-1" d="M1486.26,450.54q2.65,34,6.67,73.42l-5.34,2.67h-5.34q-4.66,0-16-72.09-21.36-50.71-69.41-50.72h-13.35v5.34q18.67,31.38,18.69,66.74-12,69.44-61.41,69.42-18.69,0-88.1-53.4-9.36-5.32-24-5.34-17.37,5.35-24,5.34l-2.67-5.34v-2.67q72.74-67.41,149.51-88.1h2.67q-30-37.38-58.74-37.38l-26.7,8-5.34-8q9.35-16,32-16,38.06,0,74.76,48.06l18.69-2.67h10.68q38.7,0,66.74,32v-2.67ZM1242,467.89v5.34q20,0,77.42,48.06l18.69,5.34h10.68q30,0,37.38-53.4,0-38.7-24-64.07Q1320.71,419.17,1242,467.89Z"/><path class="cls-1" d="M1523,401.81h5.34q51.39,0,61.41,80.1v16q0,53.4-53.4,104.12H1531c-3.55,0-5.34-1.78-5.34-5.34V594q48.06-52.72,48.06-98.78V476.57q0-44.71-45.39-58.74H1523q-2.65,0-21.35,5.34l-2.67-5.34v-5.34Q1502.29,401.83,1523,401.81Z"/><path class="cls-1" d="M1567.68,222.27H1573q105.45,0,168.2,120.14,10.66,30.7,10.68,53.4v13.35q0,89.45-96.12,133.49l-18.69,2.67q-20,0-26.7-24,0-19.35,64.08-120.14V390.47q0-7.34-13.35-13.35-8.68,0-13.35,21.36h-5.34q-6.67,0-8-10.68,0-24,32-26.7,24,10,24,34.71,0,11.35-58.74,106.79l-2.67,18.69v5.34c1.78,0,4.45.9,8,2.67q49.4,0,88.11-74.76,10.66-18.68,10.68-48.05V393.14q0-91.44-112.14-144.18a143,143,0,0,0-53.39-10.67q-64.08,0-96.12,56.06h-5.34c-3.55,0-5.34-2.67-5.34-8Q1492.94,222.26,1567.68,222.27Z"/></g></g></svg>