<svg xmlns="http://www.w3.org/2000/svg" viewBox="0 0 100 100"><defs><style>.cls-1{fill:#ccc;}</style></defs><g id="Layer_2" data-name="Layer 2"><g id="Layer_1-2" data-name="Layer 1"><path class="cls-1" d="M70.68,46.13a6,6,0,0,0,1.91-4.25,13.78,13.78,0,0,0-1.85-8.36Q69.51,31.79,68.16,30a5.25,5.25,0,0,1-.62-3q-4.19,2.1-4.18,10V47.29a9,9,0,0,0,2.83.5A6.37,6.37,0,0,0,70.68,46.13Z"/><path class="cls-1" d="M100,50A50,50,0,1,0,59.79,99V76a81.78,81.78,0,0,1-12.3.49Q20.43,75,19.69,57.38,19.2,47,26.82,41.63,32,37.94,41,37.94H54.5q-.24-7.24-5.9-9.47a6.22,6.22,0,0,0-6.28.74Q42,29.45,39,32.65a7.56,7.56,0,0,1-4.67,2.46A4.34,4.34,0,0,1,30.39,34a5,5,0,0,1-1.47-3.66,5.27,5.27,0,0,1,.86-2.92Q32.85,23.06,42,22.81a15.47,15.47,0,0,1,11.81,4.52q4.66,5,4.55,13.32H48.6a12.92,12.92,0,0,0-10.33,4.61,16.4,16.4,0,0,0-3.94,11q0,13.17,15.5,16.24a28.54,28.54,0,0,0,10,0V37.71q0-6.84,3.33-10.75a13.14,13.14,0,0,1,6.52-4.15l2.82,1.34a2.63,2.63,0,0,0-2.09,2.55A2.78,2.78,0,0,0,70.8,28,46,46,0,0,0,76,32.89q3.69,3.16,4.19,6.8a8.94,8.94,0,0,1-2.9,8.45,13.14,13.14,0,0,1-9,3.21,16.78,16.78,0,0,1-4.92-.74V72.39a44.58,44.58,0,0,0,9.23-2.58A38.35,38.35,0,0,0,80,65.75v3.93a49.7,49.7,0,0,1-6.27,3.08,58.8,58.8,0,0,1-10.34,2.95V98.18A50,50,0,0,0,100,50Z"/></g></g></svg>