<svg xmlns="http://www.w3.org/2000/svg" viewBox="0 0 263.76 60"><defs><style>.cls-1{fill:#333;}</style></defs><g id="Layer_2" data-name="Layer 2"><g id="Layer_1-2" data-name="Layer 1"><path class="cls-1" d="M100.56,13.42Q95.73,9.2,86.92,9.2a35.27,35.27,0,0,0-9.39,1.25,22.39,22.39,0,0,0-7.78,3.77l3.72,6.91a16.61,16.61,0,0,1,5.59-3,21.76,21.76,0,0,1,6.72-1.07c3.39,0,5.93.78,7.6,2.32a8.42,8.42,0,0,1,2.51,6.5v.61H85.4a25.56,25.56,0,0,0-9.88,1.59,11.09,11.09,0,0,0-5.36,4.33,11.79,11.79,0,0,0-1.63,6.16,11,11,0,0,0,1.86,6.27,12.32,12.32,0,0,0,5.28,4.33,19.06,19.06,0,0,0,8,1.56,18.08,18.08,0,0,0,8.93-2,10.82,10.82,0,0,0,3.84-3.49v4.94h9V26.45Q105.39,17.63,100.56,13.42ZM95.89,35.08A8.23,8.23,0,0,1,92,42.23l0,0a12.38,12.38,0,0,1-6.27,1.59,9.37,9.37,0,0,1-5.7-1.52,4.83,4.83,0,0,1-2.05-4.1,5,5,0,0,1,1.67-3.84c1.11-1,3.29-1.56,6.53-1.56h9.81Z"/><polygon class="cls-1" points="153.64 50.24 142.09 50.24 128.03 32.86 120.97 39.54 120.97 50.24 111.47 50.24 111.47 0 120.97 0 120.97 27.86 140.65 9.66 152.05 9.66 135.11 26.66 153.64 50.24"/><path class="cls-1" d="M182.75,30.17a14.66,14.66,0,0,1-1.41,6.77,9.5,9.5,0,0,1-3.87,4.1,11.87,11.87,0,0,1-5.82,1.37,9,9,0,0,1-7-2.7q-2.48-2.7-2.47-8.17V9.66h-9.5V32.83a20.62,20.62,0,0,0,2.2,10.07A13.89,13.89,0,0,0,161,48.83a20.45,20.45,0,0,0,9.11,1.94,18.3,18.3,0,0,0,8.67-2.09,14.13,14.13,0,0,0,4.41-3.61v5.17h9V9.66h-9.5Z"/><path class="cls-1" d="M207.68,15.6V9.66h-9.05V50.24h9.5V30.55q0-6.23,3.19-9.38A11.7,11.7,0,0,1,219.91,18c.35,0,.71,0,1.06,0a7.43,7.43,0,0,1,1.15.19v-9a20.24,20.24,0,0,0-9.77,2.13A12.73,12.73,0,0,0,207.68,15.6Z"/><path class="cls-1" d="M254.26,9.66V30.17a14.66,14.66,0,0,1-1.41,6.77A9.44,9.44,0,0,1,249,41a11.85,11.85,0,0,1-5.81,1.37,9,9,0,0,1-7-2.7q-2.47-2.7-2.47-8.17V9.66h-9.5V32.83a20.62,20.62,0,0,0,2.2,10.07,13.89,13.89,0,0,0,6.16,5.93,20.46,20.46,0,0,0,9.12,1.94,18.29,18.29,0,0,0,8.66-2.09,14.13,14.13,0,0,0,4.41-3.61v5.17h9V9.66Z"/><path class="cls-1" d="M55,0H5A5,5,0,0,0,0,5V55a5,5,0,0,0,5,5H38.93V46a11.14,11.14,0,0,1-3.31,2.77,18.08,18.08,0,0,1-8.93,2,19.22,19.22,0,0,1-8-1.55,12.34,12.34,0,0,1-5.28-4.34,11,11,0,0,1-1.86-6.27,11.73,11.73,0,0,1,1.63-6.15,11,11,0,0,1,5.36-4.33,25.35,25.35,0,0,1,9.88-1.6H38.93v-.61a8.4,8.4,0,0,0-2.51-6.49c-1.67-1.55-4.21-2.32-7.6-2.32a21.86,21.86,0,0,0-6.73,1.06,16.49,16.49,0,0,0-5.58,3l-3.73-6.92a22.51,22.51,0,0,1,7.79-3.76A34.88,34.88,0,0,1,30,9.2q8.82,0,13.64,4.22t4.83,13V60H55a5,5,0,0,0,5-5V5A5,5,0,0,0,55,0Z"/><path class="cls-1" d="M22.59,34.4a5,5,0,0,0-1.67,3.83,4.83,4.83,0,0,0,2,4.11,9.44,9.44,0,0,0,5.7,1.52,12.29,12.29,0,0,0,6.27-1.6l.05,0a8.24,8.24,0,0,0,3.94-7.15V32.84H29.12Q24.26,32.84,22.59,34.4Z"/></g></g></svg>